<svg viewBox="0 0 1024 1024" version="1.1" xmlns="http://www.w3.org/2000/svg">
	<path
		d="M761.948797 511.939185c0-16.541632-13.500891-30.042523-30.042523-30.042523H542.042395v-189.742249c0-16.541632-13.379261-30.042523-30.042523-30.042523-16.541632 0-30.042523 13.500891-30.042523 30.042523v189.863879H292.09347c-16.541632 0-30.042523 13.500891-30.042523 30.042523 0 8.270816 3.40563 15.811854 8.757335 21.285188 5.473334 5.473334 12.892743 8.757335 21.285188 8.757335h189.863879v189.863879c0 8.270816 3.40563 15.811854 8.757335 21.285188 5.473334 5.473334 12.892743 8.757335 21.285188 8.757335 16.541632 0 30.042523-13.500891 30.042523-30.042523V541.981708h189.863879c16.541632 0 30.042523-13.379261 30.042523-30.042523z m0 0"></path>
	<path
		d="M780.436504 511.939185c0-17.757928-14.473928-32.231857-32.231857-32.231856H544.353358V275.85604c0-17.757928-14.473928-32.231857-32.231856-32.231857s-32.231857 14.473928-32.231857 32.231857v203.972918H275.916727C258.158799 479.828958 243.684871 494.302886 243.684871 512.060815c0 8.878964 3.648889 17.028151 9.487112 22.866374 5.838223 5.838223 13.86578 9.487112 22.866374 9.487112h203.972918v203.972918c0 8.878964 3.648889 17.028151 9.487113 22.866374 5.838223 5.838223 13.86578 9.487112 22.866373 9.487113 17.757928 0 32.231857-14.473928 32.231857-32.231857V544.292671h203.972918c17.514669 0 31.866968-14.473928 31.866968-32.353486z m0 0"></path>
	<path
		d="M829.93977 928.034208H194.181604C140.29967 928.034208 96.512997 884.247535 96.512997 830.487231V193.512769c0-53.760304 43.786673-97.546977 97.546977-97.546977H829.93977c53.760304 0 97.546977 43.786673 97.546977 97.546977v636.974462c0.12163 53.760304-43.665043 97.546977-97.546977 97.546977zM194.181604 156.780615C173.869453 156.780615 157.327821 173.322247 157.327821 193.512769v636.974462C157.327821 850.677753 173.869453 867.219385 194.181604 867.219385H829.93977c20.312151 0 36.732153-16.541632 36.732154-36.732154V193.512769c0-20.312151-16.541632-36.732153-36.732154-36.732154H194.181604z"></path>
</svg>
