<svg viewBox="0 0 1024 1024" version="1.1" xmlns="http://www.w3.org/2000/svg">
	<path
		d="M648.6016 128c0-18.7904 15.2576-34.048 34.048-34.048H896c18.7904 0 34.048 15.2576 34.048 34.048v213.3504a34.048 34.048 0 1 1-68.096 0V162.048h-179.3024a34.048 34.048 0 0 1-34.048-34.048zM93.952 128c0-18.7904 15.2576-34.048 34.048-34.048h213.3504a34.048 34.048 0 1 1 0 68.096H162.048v179.3024a34.048 34.048 0 1 1-68.096 0V128zM896 648.6016c18.7904 0 34.048 15.2576 34.048 34.048V896a34.048 34.048 0 0 1-34.048 34.048h-213.3504a34.048 34.048 0 0 1 0-68.096h179.3024v-179.3024c0-18.7904 15.2576-34.048 34.048-34.048zM128 648.6016c18.7904 0 34.048 15.2576 34.048 34.048v179.3024h179.3024a34.048 34.048 0 1 1 0 68.096H128a34.048 34.048 0 0 1-34.048-34.048v-213.3504c0-18.7904 15.2576-34.048 34.048-34.048zM322.3552 358.4c0-18.8416 15.3088-34.1504 34.1504-34.1504h310.9888c18.8416 0 34.1504 15.3088 34.1504 34.1504v58.3168a34.1504 34.1504 0 0 1-68.2496 0v-24.1664H390.6048v24.1664a34.1504 34.1504 0 0 1-68.2496 0V358.4zM438.9888 708.2496c0-18.8416 15.3088-34.0992 34.1504-34.0992h77.7216a34.0992 34.0992 0 1 1 0 68.2496H473.1392a34.0992 34.0992 0 0 1-34.1504-34.1504z"></path>
	<path
		d="M512 363.1616c18.8416 0 34.0992 15.2576 34.0992 34.0992v310.9888a34.0992 34.0992 0 1 1-68.1984 0V397.312c0-18.8416 15.2576-34.0992 34.0992-34.0992z"></path>
</svg>
