<svg class="icon" viewBox="0 0 1024 1024" version="1.1" xmlns="http://www.w3.org/2000/svg">
	<path
		d="M563.2 672c-6.4-6.4 0 0 0 0L448 793.6c-57.6 57.6-153.6 57.6-211.2 0-57.6-57.6-64-147.2 0-211.2l121.6-121.6-6.4-6.4-38.4-32-6.4-6.4-121.6 121.6C108.8 614.4 108.8 755.2 192 832s217.6 83.2 300.8 0l121.6-121.6-6.4-6.4-44.8-32z m38.4-294.4c6.4 0 6.4 0 0 0l38.4 38.4 6.4 6.4-230.4 230.4-38.4-51.2 224-224zM531.2 192c83.2-83.2 217.6-83.2 300.8 0 83.2 83.2 83.2 217.6 0 300.8l-121.6 121.6-44.8-44.8 128-128c44.8-44.8 51.2-147.2-6.4-204.8-57.6-57.6-160-57.6-204.8-6.4l-128 128v-6.4l-38.4-38.4-6.4-6.4L531.2 192z"></path>
</svg>
