<svg viewBox="0 0 1024 1024" version="1.1" xmlns="http://www.w3.org/2000/svg">
	<path
		d="M560.104 574.25c0.625-0.64 1.182-1.2 1.67-1.683 24.773-24.465 55.547-42.364 89.471-51.779 1.014-0.281 2.241-0.603 3.682-0.965a16 16 0 0 1 13.64 2.823l1.477 1.134 25.485 19.554h22.942l15.46-11.862 11.457-8.791a16 16 0 0 1 13.692-2.81c3.65 0.93 6.585 1.734 8.803 2.412a206.001 206.001 0 0 1 14.852 5.167 205.45 205.45 0 0 1 69.482 45.108c0.491 0.485 1.05 1.049 1.68 1.692a16 16 0 0 1 4.412 13.355l-0.529 3.863-3.935 28.758 11.471 19.547L892.89 651.5l3.15 1.34a16 16 0 0 1 9.166 10.48c0.38 1.385 0.695 2.575 0.942 3.57A198.992 198.992 0 0 1 912 714.91c0 18.075-2.424 35.85-7.152 52.976-0.204 0.74-0.452 1.6-0.745 2.584a16 16 0 0 1-8.956 10.114l-1.606 0.699-28.225 12.274-11.471 19.547 2.152 24.3 0.645 7.282a16 16 0 0 1-4.654 12.755 179.21 179.21 0 0 1-4.143 4.013A205.62 205.62 0 0 1 762.876 909c-1.373 0.382-3.109 0.83-5.206 1.345a16 16 0 0 1-12.839-2.331l-4.217-2.883-22.143-15.135H695.53l-23.053 15.757-3.288 2.248a16 16 0 0 1-12.864 2.324c-3.02-0.745-5.463-1.389-7.331-1.93a205.604 205.604 0 0 1-83.28-47.352 173.687 173.687 0 0 1-3.705-3.6 16 16 0 0 1-4.65-12.751c0.252-2.85 0.458-5.184 0.62-7.001l2.177-24.587-11.471-19.547-28.313-12.313-1.5-0.652a16 16 0 0 1-8.957-10.116 163.909 163.909 0 0 1-1.291-4.546c-4.38-16.522-6.623-33.632-6.623-51.02 0-17.065 2.16-33.866 6.384-50.11 0.042-0.158 0.193-0.697 0.454-1.615a16 16 0 0 1 9.128-10.347l1.675-0.713 29.043-12.352 11.471-19.547a317416336.627 317416336.627 0 0 0-4.464-32.62 16 16 0 0 1 4.413-13.357z m58.693 51.865l-32.6 57.431-26.86 10.457A155.784 155.784 0 0 0 558 714.416c0 8.177 0.634 16.258 1.884 24.192l26.314 10.244 32.599 57.43-4.232 27.01c11.838 9.538 25.036 17.206 39.159 22.708l20.677-17.064h65.198L760.276 856c14.123-5.502 27.321-13.17 39.16-22.709l-4.233-27.008 32.6-57.431 26.313-10.244A155.435 155.435 0 0 0 856 714.416c0-6.882-0.45-13.696-1.337-20.413l-26.86-10.457-32.6-57.431 4.728-30.173A148.3 148.3 0 0 0 763.181 574L739.6 593.462h-65.198L650.819 574a148.3 148.3 0 0 0-36.75 21.942l4.728 30.173zM707.1 802.289c-48.228 0-87.324-39.096-87.324-87.324s39.096-87.324 87.324-87.324 87.325 39.096 87.325 87.324-39.097 87.324-87.325 87.324z m0-56.938c17.768 0 32.172-14.404 32.172-32.172 0-17.768-14.404-32.172-32.172-32.172-17.768 0-32.172 14.404-32.172 32.172 0 17.768 14.404 32.172 32.172 32.172zM256 348v-56a8 8 0 0 1 8-8h432a8 8 0 0 1 8 8v56a8 8 0 0 1-8 8H264a8 8 0 0 1-8-8z m0 192v-56a8 8 0 0 1 8-8h176a8 8 0 0 1 8 8v56a8 8 0 0 1-8 8H264a8 8 0 0 1-8-8z m0 192v-56a8 8 0 0 1 8-8h176a8 8 0 0 1 8 8v56a8 8 0 0 1-8 8H264a8 8 0 0 1-8-8z m584-548H184v656h288a8 8 0 0 1 8 8v56a8 8 0 0 1-8 8H144c-17.673 0-32-14.327-32-32V144c0-17.673 14.327-32 32-32h736c17.673 0 32 14.327 32 32v328a8 8 0 0 1-8 8h-56a8 8 0 0 1-8-8V184z"></path>
</svg>
