<svg viewBox="0 0 1024 1024" version="1.1" xmlns="http://www.w3.org/2000/svg">
	<path
		d="M510.1056 674.2528c-89.1904 0-161.6896-72.5504-161.6896-161.6896s72.5504-161.6896 161.6896-161.6896 161.6896 72.5504 161.6896 161.6896-72.4992 161.6896-161.6896 161.6896z m0-251.7504c-49.664 0-90.0096 40.3968-90.0096 90.0096s40.3968 90.0096 90.0096 90.0096 90.0096-40.3968 90.0096-90.0096-40.3456-90.0096-90.0096-90.0096z"></path>
	<path
		d="M510.1056 957.5424c-36.1984 0-72.3968-4.4544-107.5712-13.1584a35.88096 35.88096 0 0 1-27.1872-36.352c0.0512-1.2288 0.1024-2.4576 0.1024-3.6864 0-49.664-40.3968-90.0608-90.0608-90.0608-17.2544 0-34.048 4.9152-48.5376 14.2336a35.86048 35.86048 0 0 1-45.0048-5.12c-53.2992-54.5792-91.8528-122.0608-111.5136-195.2256a35.7888 35.7888 0 0 1 19.3024-41.6768c31.3856-14.848 51.6608-46.7968 51.6608-81.4592 0-33.8944-18.7904-64.6144-48.9984-80.128a35.8656 35.8656 0 0 1-17.92-42.3424c20.5824-67.5328 57.7536-130.0992 107.3664-180.9408 11.8784-12.1856 30.72-14.336 45.0048-5.12 14.4896 9.3184 31.2832 14.2336 48.5888 14.2336 49.664 0 90.0608-40.3968 90.0608-90.0096 0-1.28-0.0512-2.5088-0.1024-3.7376a35.82464 35.82464 0 0 1 27.1872-36.3008c72.2944-17.9712 149.504-17.408 221.9008 1.792 16.0768 4.2496 27.136 19.0464 26.624 35.6864l-0.0512 2.6112c0 49.664 40.3968 90.0096 90.0096 90.0096 16.128 0 31.9488-4.352 45.7728-12.4928a35.87072 35.87072 0 0 1 44.1344 5.9904c48.4864 50.432 84.7872 112.2816 104.96 178.8416 5.0176 16.4864-2.4064 34.1504-17.6128 42.1376a89.8048 89.8048 0 0 0-48.2816 79.7696c0 34.3552 20.0192 66.2016 50.944 81.152a35.80928 35.80928 0 0 1 19.0464 41.5232c-19.2512 72.0896-56.9856 138.8544-109.1072 193.0752a35.79904 35.79904 0 0 1-44.0832 5.9904c-13.824-8.192-29.6448-12.4928-45.7216-12.4928-49.664 0-90.0096 40.3968-90.0096 90.0608l0.0512 2.6112a35.8912 35.8912 0 0 1-26.624 35.6864 445.69088 445.69088 0 0 1-114.3296 14.8992z m-64.768-77.3632a375.53664 375.53664 0 0 0 135.936-1.1776c12.1856-77.2096 79.1552-136.3968 159.744-136.3968 18.8416 0 37.4784 3.2768 55.04 9.6768a374.58944 374.58944 0 0 0 66.9184-117.9136c-40.0384-30.208-64.7168-78.2336-64.7168-129.3312 0-49.7152 22.5792-95.744 60.416-126.0544a374.74304 374.74304 0 0 0-62.5664-106.1376 161.34144 161.34144 0 0 1-55.1424 9.6768c-80.5376 0-147.5584-59.1872-159.744-136.3968a376.76032 376.76032 0 0 0-135.936-1.2288C433.664 222.6176 366.3872 282.4704 285.44 282.4704c-20.6336 0-40.9088-3.9424-59.8528-11.4688a375.0912 375.0912 0 0 0-63.8464 107.264c38.4 30.3104 61.2864 76.5952 61.2864 126.7712 0 51.5584-24.9856 99.84-65.5872 129.9968a373.74464 373.74464 0 0 0 68.1984 119.04c18.8928-7.5264 39.168-11.4688 59.8016-11.4688 80.9472 0 148.224 59.8528 159.8976 137.5744z"></path>
</svg>
