<svg viewBox="0 0 1024 1024" xmlns="http://www.w3.org/2000/svg">
	<path
		fill="currentColor"
		d="M885.333333 85.333333H330.410667a53.333333 53.333333 0 0 0-53.333334 53.333334v106.666666H138.666667A53.333333 53.333333 0 0 0 85.333333 298.666667v586.666666a53.333333 53.333333 0 0 0 53.333334 53.333334H725.333333a53.333333 53.333333 0 0 0 53.333334-53.333334V746.154667h106.666666c29.44 0 53.333333-23.893333 53.333334-53.333334V138.666667A53.333333 53.333333 0 0 0 885.333333 85.333333zM725.333333 692.821333v192.512H138.666667V298.666667H725.333333v394.154666z m157.866667 0H778.666667V298.666667a53.333333 53.333333 0 0 0-53.333334-53.333334H330.410667v-106.666666h554.922666l-2.133333 554.154666z"></path>
</svg>
